<svg enable-background="new 0 0 512 512" height="512" viewBox="0 0 512 512" width="512" xmlns="http://www.w3.org/2000/svg"><g id="_x38_77_x2C__Women_x27_s_x2C__Day_x2C__Women"><g><path d="m481.383 155.87c-.723-.38-1.47-.773-1.826-1.012-28.152-18.845-26.54-34.242-25.245-46.614 3.104-29.661 11.872-77.455 11.96-77.934.849-4.61-1.619-9.191-5.937-11.019-4.315-1.83-9.324-.411-12.043 3.406-58.324 81.868-125.486 139.128-126.124 139.668-70.231 58.924-126.869 135.373-133.444 226.033-4.408 60.765 16.017 100.574 16.889 102.239 1.776 3.394 5.346 5.5 9.252 5.355 5.674-.208 10.058-5.114 9.594-10.811-1.581-93.839 33.849-153.707 102.485-173.141 5.392-1.525 11.052-2.039 16.629-1.516 5.275.499 64.023 5.981 69.097 5.845 15.567-.197 26.921-5.276 33.743-15.098 7.368-10.606 7.087-23.739 5.595-32.785 6.32-2.396 11.053-5.835 14.126-10.283 3.523-5.099 4.076-10.605 3.418-14.058-.405-2.13-1.492-4.07-3.097-5.528-.771-.701-1.399-1.346-1.911-1.926 4.265-.531 7.885-2.493 10.354-5.656 4.672-5.983 3.121-13.442 2.763-14.876-.295-1.174-.162-.568-5.89-14.97l18.508-10.025c2.636-1.427 4.491-3.961 5.058-6.905 3.675-19.112-8.679-25.613-13.954-28.389zm-26.966 31.974c-4.463 2.417-6.407 7.794-4.522 12.507l6.726 16.81c-13.052 2.508-19.382 17.124-8.499 31.052-1.643 1.073-4.665 2.407-9.868 3.317-6.097 1.066-9.783 7.376-7.691 13.221 1.488 4.157 4.578 17.694-.573 25.11-2.892 4.161-8.702 6.35-17.273 6.506-2.023-.107-16.703-.97-67.258-5.752-8.031-.763-16.193-.017-23.961 2.182-29.165 8.258-53.51 23.228-72.359 44.494-20.176 22.763-33.583 52.085-40.106 87.577-9.227-97.975 50.915-184.193 126.025-247.209 2.431-2.057 52.522-44.735 104.655-110.349-2.049 13.075-4.069 27.184-5.29 38.851-1.455 13.896-4.163 39.762 34.01 65.315 1.233.826 2.456 1.469 3.638 2.091 2.187 1.15 3.314 1.744 3.775 2.669z"/><path d="m144.31 388.658c5.737-73.53 49.398-146.483 126.295-210.999 2.817-2.384 69.681-59.355 129.524-143.357 3.204-4.498 2.156-10.742-2.342-13.947-4.5-3.205-10.742-2.156-13.947 2.342-58.323 81.868-125.485 139.128-126.123 139.668-70.229 58.922-126.869 135.373-133.445 226.033-4.408 60.765 16.017 100.574 16.889 102.239 1.785 3.409 5.256 5.355 8.854 5.355 7.371 0 12.358-7.876 8.876-14.608-.188-.366-18.905-37.303-14.581-92.726z"/><path d="m38.216 388.506c4.439-73.468 47.391-146.367 124.211-210.819 4.231-3.549 4.783-9.857 1.234-14.088-3.55-4.231-9.857-4.784-14.088-1.233-70.404 59.067-126.414 135.583-131.394 226.207-3.34 60.786 18.145 100.585 19.061 102.249 1.819 3.306 5.232 5.171 8.755 5.171 7.512 0 12.424-8.09 8.777-14.794-.199-.366-19.903-37.298-16.556-92.693z"/><path d="m198.483 172.595c3.648 4.158 9.968 4.558 14.112.921 87.411-76.694 120.9-140.247 122.283-142.915 2.54-4.9.628-10.926-4.27-13.471s-10.933-.637-13.482 4.258c-.324.623-33.405 63.115-117.721 137.094-4.152 3.643-4.564 9.962-.922 14.113z"/><path d="m123.231 282.907c3.797-3.974 3.676-10.273-.281-14.098-3.972-3.838-10.302-3.73-14.14.241-2.512 2.599-61.083 65.43-22.51 219.38 1.344 5.365 6.781 8.608 12.13 7.27 5.357-1.343 8.612-6.773 7.27-12.131-18.671-74.52-12.841-125.203-4.663-154.599 8.724-31.351 21.888-45.734 22.194-46.063z"/><path d="m46 156c16.542 0 30-13.458 30-30s-13.458-30-30-30-30 13.458-30 30 13.458 30 30 30zm0-40c5.514 0 10 4.486 10 10s-4.486 10-10 10-10-4.486-10-10 4.486-10 10-10z"/><path d="m456 376c-16.542 0-30 13.458-30 30s13.458 30 30 30 30-13.458 30-30-13.458-30-30-30zm0 40c-5.514 0-10-4.486-10-10s4.486-10 10-10 10 4.486 10 10-4.486 10-10 10z"/><path d="m347.716 383.932c-13.362-11.954-33.889-11.521-46.739 1.329-13.272 13.273-13.272 34.87 0 48.143l39.668 39.668c3.905 3.903 10.236 3.904 14.143 0l39.668-39.668c13.272-13.272 13.272-34.869-.001-48.144-12.858-12.858-33.384-13.277-46.739-1.328zm32.597 35.329-32.597 32.597-32.597-32.597c-5.475-5.475-5.475-14.384-.001-19.858 5.488-5.486 14.371-5.49 19.859 0l5.667 5.667c3.906 3.904 10.236 3.904 14.143 0l5.667-5.667c5.487-5.489 14.37-5.487 19.858-.001 5.475 5.475 5.475 14.384.001 19.859z"/><path d="m162.219 113.782c3.904 3.902 10.238 3.904 14.143 0l39.667-39.667c13.273-13.273 13.273-34.87 0-48.144-12.86-12.859-33.388-13.273-46.739-1.328-13.337-11.932-33.864-11.546-46.739 1.328-13.304 13.304-13.306 34.837 0 48.144zm-15.596-77.782c3.751 0 7.277 1.461 9.93 4.113l5.667 5.667c3.905 3.905 10.237 3.904 14.142 0l5.667-5.667c5.487-5.488 14.371-5.489 19.858 0 5.475 5.475 5.475 14.383 0 19.858l-32.596 32.597-32.597-32.597c-2.652-2.652-4.113-6.178-4.113-9.929 0-7.759 6.28-14.042 14.042-14.042z"/></g></g></svg>